<svg xmlns="http://www.w3.org/2000/svg" width="32" height="32" viewBox="0 0 32 32">
    <path fill="#E11B22" fill-rule="evenodd" d="M26.667 17.333v-2.666c0-.361-.132-.674-.396-.938a1.281 1.281 0 0 0-.938-.396h-6.666V6.667c0-.361-.132-.674-.396-.938a1.281 1.281 0 0 0-.938-.396h-2.666c-.361 0-.674.132-.938.396a1.281 1.281 0 0 0-.396.938v6.666H6.667c-.361 0-.674.132-.938.396a1.281 1.281 0 0 0-.396.938v2.666c0 .361.132.674.396.938.264.264.577.396.938.396h6.666v6.666c0 .361.132.674.396.938.264.264.577.396.938.396h2.666c.361 0 .674-.132.938-.396.264-.264.396-.577.396-.938v-6.666h6.666c.361 0 .674-.132.938-.396.264-.264.396-.577.396-.938zM32 6v20c0 1.653-.587 3.066-1.76 4.24C29.066 31.413 27.653 32 26 32H6c-1.653 0-3.066-.587-4.24-1.76C.587 29.066 0 27.653 0 26V6c0-1.653.587-3.066 1.76-4.24C2.934.587 4.347 0 6 0h20c1.653 0 3.066.587 4.24 1.76C31.413 2.934 32 4.347 32 6z"/>
</svg>
