<svg xmlns="http://www.w3.org/2000/svg" width="32" height="32" viewBox="0 0 32 32">
    <path fill="#E11B22" fill-rule="evenodd" d="M21.5 17.143c1.188 0 2.199.417 3.033 1.252.835.835 1.253 1.846 1.253 3.034 0 1.187-.418 2.198-1.253 3.033-.834.835-1.845 1.252-3.033 1.252s-2.199-.417-3.033-1.252c-.835-.835-1.253-1.846-1.253-3.033 0-.108.01-.26.027-.456l-4.821-2.41a4.132 4.132 0 0 1-2.92 1.151c-1.188 0-2.199-.417-3.033-1.252-.835-.835-1.253-1.846-1.253-3.033 0-1.188.418-2.2 1.253-3.034.834-.835 1.845-1.252 3.033-1.252 1.125 0 2.098.384 2.92 1.152l4.821-2.411a5.393 5.393 0 0 1-.027-.455c0-1.188.418-2.2 1.253-3.034.834-.835 1.845-1.252 3.033-1.252s2.199.417 3.033 1.252c.835.835 1.253 1.846 1.253 3.034 0 1.187-.418 2.198-1.253 3.033-.834.835-1.845 1.252-3.033 1.252a4.132 4.132 0 0 1-2.92-1.152l-4.821 2.411c.018.197.027.348.027.456 0 .107-.01.258-.027.455l4.821 2.41a4.132 4.132 0 0 1 2.92-1.151z"/>
</svg>
