<svg xmlns="http://www.w3.org/2000/svg" width="32" height="32" viewBox="0 0 32 32">
    <g fill="none" fill-rule="evenodd">
        <path fill="#FFF" d="M-667-271H503v8552H-667z"/>
        <path fill="#F0F3F5" d="M-667-95H503v436H-667z"/>
        <path fill="#205264" d="M22.241 19.3c0 1.365-.444 2.542-1.333 3.528-.888.987-2.042 1.596-3.462 1.828V27c0 .125-.04.228-.12.308a.417.417 0 0 1-.308.12H15.21a.412.412 0 0 1-.302-.127.412.412 0 0 1-.127-.301v-2.344a8.441 8.441 0 0 1-1.707-.415 8.993 8.993 0 0 1-1.36-.596 9.017 9.017 0 0 1-.99-.643 7.646 7.646 0 0 1-.624-.502 3.407 3.407 0 0 1-.234-.241c-.152-.188-.16-.37-.027-.55l1.38-1.807c.062-.09.165-.143.308-.16a.332.332 0 0 1 .321.12l.027.026c1.009.884 2.094 1.442 3.254 1.674.33.072.661.108.992.108.723 0 1.359-.192 1.908-.576.55-.384.824-.929.824-1.634 0-.25-.067-.487-.201-.71a2.511 2.511 0 0 0-.449-.563c-.165-.151-.426-.319-.783-.502a17.873 17.873 0 0 0-.884-.428c-.232-.103-.59-.248-1.072-.436-.348-.142-.622-.254-.823-.334-.201-.08-.476-.2-.824-.355a9.746 9.746 0 0 1-.837-.415c-.21-.121-.462-.28-.757-.476a4.718 4.718 0 0 1-.716-.57 8.331 8.331 0 0 1-.583-.655 3.28 3.28 0 0 1-.475-.777 5.363 5.363 0 0 1-.282-.89 4.654 4.654 0 0 1-.113-1.045c0-1.233.437-2.313 1.312-3.242.875-.928 2.013-1.526 3.415-1.794v-2.41c0-.117.043-.217.127-.302a.412.412 0 0 1 .302-.127h1.808c.125 0 .228.04.308.12.08.08.12.183.12.308v2.357a7.448 7.448 0 0 1 1.48.308c.478.152.866.302 1.166.449.299.147.582.315.85.502.268.188.442.317.522.389.08.071.148.134.201.187.152.16.174.33.067.509l-1.085 1.955c-.071.134-.174.206-.308.215a.427.427 0 0 1-.361-.094 2.752 2.752 0 0 0-.195-.16 7.316 7.316 0 0 0-.522-.356 6.912 6.912 0 0 0-.783-.428 5.982 5.982 0 0 0-.998-.348 4.468 4.468 0 0 0-1.145-.155c-.848 0-1.54.192-2.076.576-.536.384-.804.88-.804 1.487 0 .232.038.446.114.643.076.196.208.382.395.556.188.174.364.321.53.442.164.12.414.259.75.415.334.156.604.277.81.361.205.085.517.208.937.369.473.178.835.319 1.085.422.25.102.59.259 1.018.468.428.21.765.4 1.01.57.246.17.523.392.831.67.308.276.545.56.71.85.165.29.306.631.422 1.024.116.393.174.813.174 1.26z"/>
        <path fill="#E11B22" d="M22.241 19.3c0 1.365-.444 2.542-1.333 3.528-.888.987-2.042 1.596-3.462 1.828V27c0 .125-.04.228-.12.308a.417.417 0 0 1-.308.12H15.21a.412.412 0 0 1-.302-.127.412.412 0 0 1-.127-.301v-2.344a8.441 8.441 0 0 1-1.707-.415 8.993 8.993 0 0 1-1.36-.596 9.017 9.017 0 0 1-.99-.643 7.646 7.646 0 0 1-.624-.502 3.407 3.407 0 0 1-.234-.241c-.152-.188-.16-.37-.027-.55l1.38-1.807c.062-.09.165-.143.308-.16a.332.332 0 0 1 .321.12l.027.026c1.009.884 2.094 1.442 3.254 1.674.33.072.661.108.992.108.723 0 1.359-.192 1.908-.576.55-.384.824-.929.824-1.634 0-.25-.067-.487-.201-.71a2.511 2.511 0 0 0-.449-.563c-.165-.151-.426-.319-.783-.502a17.873 17.873 0 0 0-.884-.428c-.232-.103-.59-.248-1.072-.436-.348-.142-.622-.254-.823-.334-.201-.08-.476-.2-.824-.355a9.746 9.746 0 0 1-.837-.415c-.21-.121-.462-.28-.757-.476a4.718 4.718 0 0 1-.716-.57 8.331 8.331 0 0 1-.583-.655 3.28 3.28 0 0 1-.475-.777 5.363 5.363 0 0 1-.282-.89 4.654 4.654 0 0 1-.113-1.045c0-1.233.437-2.313 1.312-3.242.875-.928 2.013-1.526 3.415-1.794v-2.41c0-.117.043-.217.127-.302a.412.412 0 0 1 .302-.127h1.808c.125 0 .228.04.308.12.08.08.12.183.12.308v2.357a7.448 7.448 0 0 1 1.48.308c.478.152.866.302 1.166.449.299.147.582.315.85.502.268.188.442.317.522.389.08.071.148.134.201.187.152.16.174.33.067.509l-1.085 1.955c-.071.134-.174.206-.308.215a.427.427 0 0 1-.361-.094 2.752 2.752 0 0 0-.195-.16 7.316 7.316 0 0 0-.522-.356 6.912 6.912 0 0 0-.783-.428 5.982 5.982 0 0 0-.998-.348 4.468 4.468 0 0 0-1.145-.155c-.848 0-1.54.192-2.076.576-.536.384-.804.88-.804 1.487 0 .232.038.446.114.643.076.196.208.382.395.556.188.174.364.321.53.442.164.12.414.259.75.415.334.156.604.277.81.361.205.085.517.208.937.369.473.178.835.319 1.085.422.25.102.59.259 1.018.468.428.21.765.4 1.01.57.246.17.523.392.831.67.308.276.545.56.71.85.165.29.306.631.422 1.024.116.393.174.813.174 1.26z"/>
    </g>
</svg>
