<svg xmlns="http://www.w3.org/2000/svg" width="32" height="32" viewBox="0 0 32 32">
    <path fill="#205264" fill-rule="evenodd" d="M19.786 13.571c0-1.651-.587-3.064-1.761-4.238-1.175-1.175-2.587-1.762-4.24-1.762-1.651 0-3.064.587-4.238 1.762-1.174 1.174-1.761 2.587-1.761 4.238 0 1.652.587 3.065 1.76 4.24 1.175 1.173 2.588 1.76 4.24 1.76 1.652 0 3.064-.587 4.239-1.76 1.174-1.175 1.76-2.588 1.76-4.24zm6.857 11.143c0 .465-.17.866-.51 1.206-.338.339-.74.509-1.204.509-.483 0-.884-.17-1.206-.51l-4.594-4.58C17.531 22.446 15.75 23 13.786 23a9.265 9.265 0 0 1-3.663-.743 9.427 9.427 0 0 1-3.014-2.01A9.427 9.427 0 0 1 5.1 17.235a9.265 9.265 0 0 1-.743-3.663c0-1.276.248-2.497.743-3.663a9.427 9.427 0 0 1 2.01-3.013 9.427 9.427 0 0 1 3.013-2.009 9.265 9.265 0 0 1 3.663-.743c1.277 0 2.497.248 3.663.743a9.427 9.427 0 0 1 3.013 2.01 9.427 9.427 0 0 1 2.009 3.012 9.265 9.265 0 0 1 .743 3.663c0 1.965-.553 3.746-1.66 5.344l4.593 4.594c.33.33.496.732.496 1.205z"/>
</svg>
