<svg xmlns="http://www.w3.org/2000/svg" width="32" height="32" viewBox="0 0 32 32">
    <path fill="#E11B22" fill-rule="evenodd" d="M24.214 8.429l-5.143 9.428h10.286L24.214 8.43zm-17.143 0L1.93 17.857h10.285L7.071 8.43zm10.996-2.572a2.52 2.52 0 0 1-.61.958 2.52 2.52 0 0 1-.957.61v17.29h8.143c.125 0 .228.04.308.12.08.08.12.183.12.308V26c0 .125-.04.228-.12.308a.417.417 0 0 1-.308.12h-18a.417.417 0 0 1-.308-.12.417.417 0 0 1-.12-.308v-.857c0-.125.04-.228.12-.308.08-.08.183-.12.308-.12h8.143V7.424a2.52 2.52 0 0 1-.958-.61 2.52 2.52 0 0 1-.61-.958H6.644a.417.417 0 0 1-.308-.12.417.417 0 0 1-.12-.308V4.57c0-.125.04-.227.12-.308.08-.08.183-.12.308-.12h6.576c.187-.51.5-.922.937-1.239a2.47 2.47 0 0 1 1.487-.475c.553 0 1.049.158 1.486.475.438.317.75.73.938 1.239h6.576c.125 0 .228.04.308.12.08.08.12.183.12.308v.858c0 .125-.04.227-.12.308a.417.417 0 0 1-.308.12h-6.576zm-2.424.214c.295 0 .547-.104.757-.314.21-.21.314-.462.314-.757s-.105-.547-.314-.757a1.032 1.032 0 0 0-.757-.314c-.295 0-.547.104-.757.314-.21.21-.315.462-.315.757s.105.547.315.757c.21.21.462.314.757.314zm14.571 11.786c0 .652-.207 1.237-.622 1.755-.416.517-.94.924-1.574 1.218a9.541 9.541 0 0 1-1.935.663 8.539 8.539 0 0 1-1.869.221c-.589 0-1.212-.073-1.868-.22a9.541 9.541 0 0 1-1.935-.664 4.312 4.312 0 0 1-1.574-1.218 2.731 2.731 0 0 1-.623-1.755c0-.098.157-.46.469-1.085a76.48 76.48 0 0 1 1.232-2.337c.51-.933.987-1.806 1.433-2.618a380.189 380.189 0 0 1 2.116-3.804.798.798 0 0 1 .75-.442c.34 0 .59.148.75.442a513.76 513.76 0 0 1 3.55 6.422c.508.933.919 1.712 1.232 2.337.312.625.468.987.468 1.085zm-17.143 0c0 .652-.207 1.237-.622 1.755-.416.517-.94.924-1.574 1.218a9.541 9.541 0 0 1-1.935.663 8.539 8.539 0 0 1-1.869.221c-.589 0-1.212-.073-1.868-.22a9.541 9.541 0 0 1-1.935-.664 4.312 4.312 0 0 1-1.574-1.218 2.731 2.731 0 0 1-.623-1.755c0-.098.157-.46.47-1.085a76.48 76.48 0 0 1 1.231-2.337 974.2 974.2 0 0 1 1.433-2.618 380.188 380.188 0 0 1 2.116-3.804.798.798 0 0 1 .75-.442c.34 0 .59.148.75.442a513.782 513.782 0 0 1 3.55 6.422c.508.933.92 1.712 1.232 2.337.312.625.468.987.468 1.085z"/>
</svg>
