<svg xmlns="http://www.w3.org/2000/svg" width="32" height="32" viewBox="0 0 32 32">
    <path fill="#205264" fill-rule="evenodd" d="M9.846 25.932V22.25a.596.596 0 0 0-.173-.441.6.6 0 0 0-.442-.173H3.077a.6.6 0 0 0-.442.173.596.596 0 0 0-.173.441v3.682c0 .179.057.326.173.44a.6.6 0 0 0 .442.173H9.23a.6.6 0 0 0 .442-.172.596.596 0 0 0 .173-.441zm0-7.364v-3.682a.596.596 0 0 0-.173-.44.6.6 0 0 0-.442-.173H3.077a.6.6 0 0 0-.442.172.596.596 0 0 0-.173.441v3.682c0 .18.057.326.173.441a.6.6 0 0 0 .442.173H9.23a.6.6 0 0 0 .442-.173.596.596 0 0 0 .173-.44zm9.846 7.364V22.25a.596.596 0 0 0-.173-.441.6.6 0 0 0-.442-.173h-6.154a.6.6 0 0 0-.442.173.596.596 0 0 0-.173.441v3.682c0 .179.057.326.173.44a.6.6 0 0 0 .442.173h6.154a.6.6 0 0 0 .442-.172.596.596 0 0 0 .173-.441zM9.846 11.205V7.523a.596.596 0 0 0-.173-.441.6.6 0 0 0-.442-.173H3.077a.6.6 0 0 0-.442.173.596.596 0 0 0-.173.44v3.683c0 .179.057.326.173.44a.6.6 0 0 0 .442.173H9.23a.6.6 0 0 0 .442-.172.596.596 0 0 0 .173-.441zm9.846 7.363v-3.682a.596.596 0 0 0-.173-.44.6.6 0 0 0-.442-.173h-6.154a.6.6 0 0 0-.442.172.596.596 0 0 0-.173.441v3.682c0 .18.057.326.173.441a.6.6 0 0 0 .442.173h6.154a.6.6 0 0 0 .442-.173.596.596 0 0 0 .173-.44zm9.846 7.364V22.25a.596.596 0 0 0-.173-.441.6.6 0 0 0-.442-.173H22.77a.6.6 0 0 0-.442.173.596.596 0 0 0-.173.441v3.682c0 .179.058.326.173.44a.6.6 0 0 0 .442.173h6.154a.6.6 0 0 0 .442-.172.596.596 0 0 0 .173-.441zm-9.846-14.727V7.523a.596.596 0 0 0-.173-.441.6.6 0 0 0-.442-.173h-6.154a.6.6 0 0 0-.442.173.596.596 0 0 0-.173.44v3.683c0 .179.057.326.173.44a.6.6 0 0 0 .442.173h6.154a.6.6 0 0 0 .442-.172.596.596 0 0 0 .173-.441zm9.846 7.363v-3.682a.596.596 0 0 0-.173-.44.6.6 0 0 0-.442-.173H22.77a.6.6 0 0 0-.442.172.596.596 0 0 0-.173.441v3.682c0 .18.058.326.173.441a.6.6 0 0 0 .442.173h6.154a.6.6 0 0 0 .442-.173.596.596 0 0 0 .173-.44zm0-7.363V7.523a.596.596 0 0 0-.173-.441.6.6 0 0 0-.442-.173H22.77a.6.6 0 0 0-.442.173.596.596 0 0 0-.173.44v3.683c0 .179.058.326.173.44a.6.6 0 0 0 .442.173h6.154a.6.6 0 0 0 .442-.172.596.596 0 0 0 .173-.441zM32 5.068v20.864a2.95 2.95 0 0 1-.904 2.167c-.602.6-1.327.901-2.173.901H3.077c-.846 0-1.57-.3-2.173-.901A2.95 2.95 0 0 1 0 25.932V5.068c0-.844.301-1.566.904-2.167A2.967 2.967 0 0 1 3.077 2h25.846c.846 0 1.57.3 2.173.901S32 4.224 32 5.068z"/>
</svg>
