<svg xmlns="http://www.w3.org/2000/svg" width="32" height="32" viewBox="0 0 32 32">
    <path fill="#205264" fill-rule="evenodd" d="M28.805 6.786c.328.333.61.785.843 1.357.235.571.352 1.095.352 1.571v20.572c0 .476-.164.88-.492 1.214-.328.333-.727.5-1.195.5H4.688c-.47 0-.868-.167-1.196-.5A1.667 1.667 0 0 1 3 30.286V1.714c0-.476.164-.88.492-1.214C3.82.167 4.22 0 4.688 0h15.75c.468 0 .984.119 1.546.357.563.238 1.008.524 1.336.857l5.485 5.572zM21 2.429v6.714h6.61c-.118-.345-.247-.59-.387-.732L21.72 2.82c-.14-.142-.381-.273-.721-.392zm6.75 27.285V11.43h-7.313c-.468 0-.867-.167-1.195-.5a1.667 1.667 0 0 1-.492-1.215V2.286H5.25v27.428h22.5zm-18-15.428a.543.543 0 0 1 .563-.571h12.375a.543.543 0 0 1 .562.57v1.144a.543.543 0 0 1-.563.571H10.313a.543.543 0 0 1-.563-.571v-1.143zm12.938 4a.543.543 0 0 1 .562.571V20a.543.543 0 0 1-.563.571H10.313A.543.543 0 0 1 9.75 20v-1.143a.543.543 0 0 1 .563-.571h12.375zm0 4.571a.543.543 0 0 1 .562.572v1.142a.543.543 0 0 1-.563.571H10.313a.543.543 0 0 1-.563-.57v-1.143a.543.543 0 0 1 .563-.571h12.375z"/>
</svg>
