<svg xmlns="http://www.w3.org/2000/svg" width="32" height="32" viewBox="0 0 32 32">
    <g fill="none" fill-rule="evenodd">
        <path fill="#E11B22" d="M28.48 5c.704 0 1.3.25 1.788.749S31 6.857 31 7.576v17.848c0 .72-.244 1.328-.732 1.827-.489.5-1.084.749-1.788.749H3.52c-.704 0-1.3-.25-1.788-.749S1 26.143 1 25.424V7.576c0-.72.244-1.328.732-1.827A2.405 2.405 0 0 1 3.52 5h24.96zM10.99 8.833a3.55 3.55 0 0 0-2.636 1.108c-.723.74-1.084 1.648-1.084 2.726s.36 1.986 1.084 2.725A3.55 3.55 0 0 0 10.99 16.5c1.035 0 1.924-.37 2.666-1.108.742-.739 1.114-1.647 1.114-2.725s-.372-1.987-1.114-2.726c-.742-.738-1.63-1.108-2.666-1.108zm7.53 15.334v-1.258c0-.799-.47-1.518-1.407-2.156a9.546 9.546 0 0 0-3.076-1.378c-1.113-.28-2.129-.42-3.047-.42-.918 0-1.933.14-3.047.42a9.213 9.213 0 0 0-3.047 1.378c-.917.638-1.376 1.357-1.376 2.156v1.258h15z"/>
        <path fill="#FFF" d="M18.5 15.222V9.26h1.267v5.963H18.5zm2.793 0V9.26h2.62c.943 0 1.666.245 2.168.736.501.49.752 1.197.752 2.12 0 .984-.266 1.747-.798 2.291-.532.544-1.276.816-2.233.816h-2.51zm1.267-.846h.946c.666 0 1.163-.18 1.49-.542.328-.361.492-.91.492-1.646 0-.57-.131-1.043-.395-1.422a1.428 1.428 0 0 0-.654-.54c-.255-.1-.626-.149-1.114-.149h-.765v4.3z"/>
    </g>
</svg>
